<svg xmlns="http://www.w3.org/2000/svg" width="1200" height="630" viewBox="0 0 1200 630" role="img" aria-labelledby="title desc">
<title id="title">KTV PRO K500 dengan SONKUPIK STUDIO</title>
<desc id="desc">Satu alat menggantikan satu rack pemrosesan karaoke: vocal effect, feedback control, compressor, key transpose, parametric EQ, crossover dan loudspeaker management.</desc>
<defs>
  <linearGradient id="bg" x1="0" y1="0" x2="1200" y2="630"><stop stop-color="#05090e"/><stop offset=".56" stop-color="#0a1420"/><stop offset="1" stop-color="#090c16"/></linearGradient>
  <linearGradient id="accent" x1="0" x2="1"><stop stop-color="#69dfd1"/><stop offset=".52" stop-color="#81a8ff"/><stop offset="1" stop-color="#c49bff"/></linearGradient>
  <radialGradient id="glow"><stop stop-color="#69dfd1" stop-opacity=".22"/><stop offset="1" stop-color="#69dfd1" stop-opacity="0"/></radialGradient>
  <filter id="shadow" x="-20%" y="-20%" width="140%" height="160%"><feDropShadow dx="0" dy="22" stdDeviation="24" flood-color="#000" flood-opacity=".5"/></filter>
</defs>
<rect width="1200" height="630" fill="url(#bg)"/>
<circle cx="970" cy="120" r="360" fill="url(#glow)"/>
<g opacity=".12" stroke="#9fbcd8"><path d="M0 90h1200M0 180h1200M0 270h1200M0 360h1200M0 450h1200M0 540h1200"/><path d="M100 0v630M200 0v630M300 0v630M400 0v630M500 0v630M600 0v630M700 0v630M800 0v630M900 0v630M1000 0v630M1100 0v630"/></g>

<g transform="translate(72 58)">
  <rect width="66" height="66" rx="16" fill="#0d1924" stroke="#69dfd1" stroke-opacity=".5"/>
  <path d="m16 21 17-10 17 10v7L33 18 16 28Z" fill="#69dfd1"/>
  <path d="m16 43 17 10 17-10v7L33 60 16 50Z" fill="#81a8ff"/>
  <path d="m21 32 12-7 12 7-12 7Z" fill="#c49bff"/>
  <text x="88" y="27" fill="#edf5fb" font-family="Segoe UI,Arial,sans-serif" font-size="26" font-weight="700" letter-spacing="2.4">SONKUPIK STUDIO</text>
  <text x="88" y="52" fill="#8fa5b5" font-family="Segoe UI,Arial,sans-serif" font-size="14" letter-spacing="1.1">CONTROL ROOM KTV PRO K500</text>
</g>

<text x="72" y="220" fill="#edf5fb" font-family="Segoe UI,Arial,sans-serif" font-size="53" font-weight="600" letter-spacing="-2">Satu alat menggantikan</text>
<text x="72" y="280" fill="url(#accent)" font-family="Segoe UI,Arial,sans-serif" font-size="53" font-weight="600" letter-spacing="-2">satu rack karaoke.</text>
<text x="74" y="330" fill="#a6b8c5" font-family="Segoe UI,Arial,sans-serif" font-size="20">Vocal effect · feedback control · dynamics · key transpose</text>
<text x="74" y="360" fill="#a6b8c5" font-family="Segoe UI,Arial,sans-serif" font-size="20">parametric EQ · crossover · loudspeaker management</text>

<g transform="translate(73 410)" font-family="Segoe UI,Arial,sans-serif">
  <g><rect width="130" height="38" rx="9" fill="#69dfd1" fill-opacity=".1" stroke="#69dfd1" stroke-opacity=".34"/><text x="19" y="24" fill="#c8f7f2" font-size="13">KEY ±7</text></g>
  <g transform="translate(144)"><rect width="155" height="38" rx="9" fill="#81a8ff" fill-opacity=".09" stroke="#81a8ff" stroke-opacity=".3"/><text x="18" y="24" fill="#d5e0ff" font-size="13">REVERB + ECHO</text></g>
  <g transform="translate(313)"><rect width="150" height="38" rx="9" fill="#c49bff" fill-opacity=".09" stroke="#c49bff" stroke-opacity=".3"/><text x="18" y="24" fill="#eadcff" font-size="13">MIC PEQ 10-BAND</text></g>
</g>

<g transform="translate(656 86)" filter="url(#shadow)">
  <rect width="475" height="455" rx="22" fill="#08111a" stroke="#a5c9de" stroke-opacity=".25"/>
  <text x="237.5" y="34" text-anchor="middle" fill="#6f8494" font-family="Segoe UI,Arial,sans-serif" font-size="10" letter-spacing="1.6">INTEGRATED KARAOKE DSP</text>
  <rect x="130" y="56" width="215" height="112" rx="16" fill="#0d202a" stroke="#69dfd1" stroke-opacity=".46"/>
  <text x="237.5" y="92" text-anchor="middle" fill="#69dfd1" font-family="Segoe UI,Arial,sans-serif" font-size="11" font-weight="700" letter-spacing="1.5">MUSIC · VOCAL · EFFECTS · ROOM</text>
  <text x="237.5" y="126" text-anchor="middle" fill="#edf5fb" font-family="Segoe UI,Arial,sans-serif" font-size="26" font-weight="700">KTV PRO K500</text>
  <text x="237.5" y="150" text-anchor="middle" fill="#8fa6b4" font-family="Segoe UI,Arial,sans-serif" font-size="11">ONE PROCESSOR · ONE WORKFLOW</text>

  <g font-family="Segoe UI,Arial,sans-serif" text-anchor="middle">
    <g transform="translate(28 202)"><rect width="128" height="72" rx="12" fill="#101a25" stroke="#69dfd1" stroke-opacity=".2"/><text x="64" y="29" fill="#dceaf0" font-size="11" font-weight="700">VOCAL FX</text><text x="64" y="50" fill="#8298a8" font-size="9">REVERB · ECHO</text></g>
    <g transform="translate(173 202)"><rect width="128" height="72" rx="12" fill="#101a25" stroke="#81a8ff" stroke-opacity=".2"/><text x="64" y="29" fill="#dceaf0" font-size="11" font-weight="700">FEEDBACK</text><text x="64" y="50" fill="#8298a8" font-size="9">FBX · EQ · FILTER</text></g>
    <g transform="translate(318 202)"><rect width="128" height="72" rx="12" fill="#101a25" stroke="#c49bff" stroke-opacity=".2"/><text x="64" y="29" fill="#dceaf0" font-size="11" font-weight="700">DYNAMICS</text><text x="64" y="50" fill="#8298a8" font-size="9">GATE · COMPRESSOR</text></g>
    <g transform="translate(28 292)"><rect width="128" height="72" rx="12" fill="#101a25" stroke="#69dfd1" stroke-opacity=".2"/><text x="64" y="29" fill="#dceaf0" font-size="11" font-weight="700">KEY CONTROL</text><text x="64" y="50" fill="#8298a8" font-size="9">-7 TO +7</text></g>
    <g transform="translate(173 292)"><rect width="128" height="72" rx="12" fill="#101a25" stroke="#81a8ff" stroke-opacity=".2"/><text x="64" y="29" fill="#dceaf0" font-size="11" font-weight="700">CROSSOVER</text><text x="64" y="50" fill="#8298a8" font-size="9">HPF · LPF</text></g>
    <g transform="translate(318 292)"><rect width="128" height="72" rx="12" fill="#101a25" stroke="#c49bff" stroke-opacity=".2"/><text x="64" y="29" fill="#dceaf0" font-size="11" font-weight="700">LOUDSPEAKER</text><text x="64" y="50" fill="#8298a8" font-size="9">MAIN · SUR · CTR · SUB</text></g>
  </g>

  <rect x="28" y="387" width="418" height="42" rx="10" fill="#0d1823" stroke="#69dfd1" stroke-opacity=".22"/>
  <text x="237" y="413" text-anchor="middle" fill="#bfeee9" font-family="Segoe UI,Arial,sans-serif" font-size="12" letter-spacing=".8">CONTROLLED VISUALLY WITH SONKUPIK STUDIO</text>
</g>

<text x="74" y="565" fill="#718697" font-family="Segoe UI,Arial,sans-serif" font-size="14">Windows 10/11 x64 · Setup + Portable · Official GitHub Releases</text>
</svg>
